<?xml version="1.0" standalone="no"?>
<!DOCTYPE svg PUBLIC "-//W3C//DTD SVG 20010904//EN"
 "http://www.w3.org/TR/2001/REC-SVG-20010904/DTD/svg10.dtd">
<svg version="1.0" xmlns="http://www.w3.org/2000/svg"
 width="1024.000000pt" height="1024.000000pt" viewBox="0 0 1024.000000 1024.000000"
 preserveAspectRatio="xMidYMid meet">

<g transform="translate(0.000000,1024.000000) scale(0.100000,-0.100000)"
fill="#000000" stroke="none">
<path d="M1274 5996 l-34 -34 0 -190 c0 -207 -1 -204 60 -217 123 -26 210
-135 210 -262 0 -95 -86 -200 -187 -228 -32 -9 -64 -18 -70 -20 -10 -3 -13
-52 -13 -200 l0 -197 29 -29 29 -29 1002 0 1002 0 29 29 29 30 -2 197 -3 197
-70 22 c-250 81 -245 414 8 487 23 6 48 16 55 21 17 13 17 365 0 402 -26 57
18 55 -1054 55 l-986 0 -34 -34z m1187 -186 c264 -81 419 -341 368 -616 -77
-418 -601 -574 -892 -265 -124 132 -174 311 -136 493 38 183 189 344 370 392
80 22 214 20 290 -4z"/>
<path d="M2275 5723 c-39 -42 -98 -150 -89 -164 7 -11 251 -12 258 -1 13 21
-81 173 -120 195 -10 6 -25 -4 -49 -30z"/>
<path d="M2110 5700 c-30 -16 -71 -42 -90 -58 l-34 -29 29 -15 c17 -8 42 -18
56 -21 24 -6 27 -3 39 39 7 25 24 61 36 80 13 19 22 34 21 34 -1 -1 -27 -14
-57 -30z"/>
<path d="M2488 5688 c11 -18 26 -52 33 -75 7 -24 16 -43 20 -43 16 0 89 32 89
39 0 17 -129 111 -153 111 -5 0 0 -15 11 -32z"/>
<path d="M1912 5493 c-11 -26 -23 -60 -26 -75 -3 -16 -8 -39 -11 -53 l-5 -25
105 0 105 0 0 38 c0 20 3 53 6 72 l5 35 -63 21 c-35 11 -70 24 -79 28 -12 5
-21 -4 -37 -41z"/>
<path d="M2625 5514 c-27 -13 -58 -24 -68 -24 -16 0 -18 -9 -15 -75 l3 -75
104 0 104 0 -7 47 c-7 50 -50 154 -63 152 -4 0 -30 -11 -58 -25z"/>
<path d="M2170 5405 l0 -65 145 0 145 0 0 65 0 65 -145 0 -145 0 0 -65z"/>
<path d="M1875 5252 c-5 -5 14 -79 36 -137 16 -44 25 -56 38 -51 9 3 43 15 76
26 l60 21 -2 70 -1 71 -102 1 c-56 1 -103 1 -105 -1z"/>
<path d="M2170 5190 l0 -65 145 0 145 0 0 62 0 62 -145 3 -145 3 0 -65z"/>
<path d="M2544 5251 c-2 -2 -4 -34 -4 -71 l0 -67 63 -22 c34 -13 69 -25 78
-28 13 -4 22 9 38 53 12 31 24 75 27 98 l6 41 -102 0 c-56 0 -104 -2 -106 -4z"/>
<path d="M2180 5034 c0 -3 12 -29 26 -58 31 -62 90 -136 109 -136 26 0 112
117 130 178 l6 22 -135 0 c-75 0 -136 -3 -136 -6z"/>
<path d="M2031 5003 l-44 -16 34 -29 c19 -16 59 -42 89 -57 l55 -29 -35 74
c-19 40 -39 73 -45 73 -5 0 -30 -8 -54 -16z"/>
<path d="M2511 4960 c-12 -32 -26 -62 -31 -65 -6 -4 -10 -11 -10 -16 0 -13 55
16 120 64 l54 41 -39 18 c-63 28 -70 24 -94 -42z"/>
<path d="M3820 5360 l0 -520 105 0 105 0 2 358 3 359 225 -358 225 -359 123 0
122 0 0 520 0 520 -105 0 -105 0 0 -352 c-1 -319 -2 -351 -16 -333 -8 11 -110
170 -226 353 l-212 332 -123 0 -123 0 0 -520z"/>
<path d="M8030 5360 l0 -520 100 0 100 0 0 520 0 520 -100 0 -100 0 0 -520z"/>
<path d="M5109 5591 c-280 -89 -366 -444 -159 -651 195 -196 541 -134 658 118
23 50 27 70 27 157 0 88 -3 107 -27 158 -87 184 -305 280 -499 218z m198 -172
c73 -27 123 -109 123 -204 0 -156 -133 -256 -267 -200 -52 22 -72 42 -99 100
-69 146 21 313 168 315 26 0 59 -5 75 -11z"/>
<path d="M5920 5601 c-112 -34 -184 -115 -197 -220 -11 -92 37 -172 124 -208
27 -11 90 -28 141 -38 106 -20 142 -42 142 -85 0 -43 -40 -70 -104 -70 -60 0
-105 24 -132 69 -10 17 -23 30 -29 28 -5 -3 -45 -12 -87 -22 -43 -10 -78 -23
-78 -27 0 -20 41 -85 72 -115 18 -18 60 -45 93 -60 53 -25 71 -28 155 -27 83
0 103 4 158 28 101 47 152 119 152 218 -1 95 -49 163 -141 202 -19 8 -75 22
-125 31 -120 23 -144 36 -144 81 0 25 36 59 71 67 41 10 95 -11 128 -48 l31
-35 82 21 c46 11 84 22 86 24 2 2 -6 21 -17 43 -28 55 -100 115 -162 135 -53
18 -173 22 -219 8z"/>
<path d="M6673 5596 c-279 -91 -362 -437 -157 -656 165 -177 477 -147 586 56
49 92 50 89 -46 113 -47 11 -89 21 -94 21 -5 0 -15 -14 -22 -30 -45 -108 -192
-130 -273 -41 -94 104 -70 298 44 356 44 23 130 19 170 -8 26 -17 71 -81 74
-104 1 -3 179 38 183 42 9 9 -49 116 -83 154 -20 22 -66 55 -102 73 -56 27
-78 32 -152 35 -54 2 -102 -2 -128 -11z"/>
<path d="M7463 5596 c-23 -7 -57 -23 -77 -35 -45 -28 -111 -103 -125 -141 -9
-28 -9 -30 27 -36 20 -3 65 -12 99 -19 l61 -12 21 28 c67 90 231 71 231 -27 0
-32 -2 -33 -57 -44 -242 -46 -317 -73 -375 -138 -99 -110 -54 -264 94 -327 96
-39 237 -23 311 36 l37 30 0 -36 0 -35 101 0 101 0 -4 283 c-3 267 -4 284 -25
323 -28 52 -93 110 -152 137 -58 26 -206 33 -268 13z m247 -450 c0 -87 -82
-156 -186 -156 -143 0 -140 136 3 169 44 10 140 27 171 30 8 1 12 -14 12 -43z"/>
<path d="M8666 5596 c-21 -8 -56 -28 -77 -46 l-39 -31 0 41 0 40 -105 0 -105
0 2 -527 3 -528 103 -3 102 -3 0 192 0 192 28 -28 c47 -48 108 -70 193 -70
138 1 247 75 313 214 29 62 31 73 31 181 0 105 -2 120 -28 175 -34 73 -104
148 -172 183 -62 32 -187 41 -249 18z m154 -187 c111 -63 128 -274 28 -366
-51 -48 -128 -56 -198 -20 -107 54 -137 255 -52 351 53 59 151 75 222 35z"/>
</g>
</svg>
